<svg width="110" height="125" viewBox="0 0 110 125" fill="none" xmlns="http://www.w3.org/2000/svg">
<path d="M54.9 124.47C85.2204 124.47 109.8 101.247 109.8 72.6C109.8 43.953 85.2204 20.73 54.9 20.73C24.5796 20.73 0 43.953 0 72.6C0 101.247 24.5796 124.47 54.9 124.47Z" fill="url(#paint0_radial_1_131)"/>
<path d="M39.16 15.42L54.9 8.61V4.52001C54.9 1.34001 51.65 -0.789998 48.73 0.470002L14.17 15.42C12.55 16.12 11.51 17.71 11.51 19.47V88.35C11.51 91.56 14.82 93.69 17.74 92.37L36.49 83.9V19.47C36.49 17.71 37.54 16.12 39.15 15.42H39.16Z" fill="url(#paint1_linear_1_131)"/>
<path d="M64.15 15.42L79.89 8.61V4.52001C79.89 1.34001 76.64 -0.789998 73.72 0.470002L54.9 8.61V72.74C54.9 74.47 53.88 76.05 52.3 76.76L36.49 83.9V88.35C36.49 91.56 39.8 93.69 42.72 92.37L61.47 83.9V19.47C61.47 17.71 62.52 16.12 64.13 15.42H64.15Z" fill="url(#paint2_linear_1_131)"/>
<path d="M54.9 72.74V8.60999L39.16 15.42C37.54 16.12 36.5 17.71 36.5 19.47V83.9L52.31 76.76C53.89 76.05 54.91 74.47 54.91 72.74H54.9Z" fill="url(#paint3_linear_1_131)"/>
<path d="M54.9 72.74V8.60999L39.16 15.42C37.54 16.12 36.5 17.71 36.5 19.47V83.9L52.31 76.76C53.89 76.05 54.91 74.47 54.91 72.74H54.9Z" fill="url(#paint4_linear_1_131)"/>
<path d="M98.7 0.470002L79.88 8.61V72.74C79.88 74.47 78.86 76.05 77.28 76.76L61.47 83.9V88.35C61.47 91.56 64.78 93.69 67.7 92.37L102.26 76.76C103.84 76.05 104.86 74.47 104.86 72.74V4.52001C104.86 1.34001 101.61 -0.789998 98.69 0.470002H98.7Z" fill="url(#paint5_linear_1_131)"/>
<path d="M79.89 72.74V8.60999L64.15 15.42C62.53 16.12 61.49 17.71 61.49 19.47V83.9L77.3 76.76C78.88 76.05 79.9 74.47 79.9 72.74H79.89Z" fill="url(#paint6_linear_1_131)"/>
<path d="M79.89 72.74V8.60999L64.15 15.42C62.53 16.12 61.49 17.71 61.49 19.47V83.9L77.3 76.76C78.88 76.05 79.9 74.47 79.9 72.74H79.89Z" fill="url(#paint7_linear_1_131)"/>
<defs>
<radialGradient id="paint0_radial_1_131" cx="0" cy="0" r="1" gradientUnits="userSpaceOnUse" gradientTransform="translate(54.9 71.8706) scale(54.9 51.606)">
<stop stop-color="#F74DBA"/>
<stop offset="0.19" stop-color="#F86BC5" stop-opacity="0.83"/>
<stop offset="0.62" stop-color="#FBB8E3" stop-opacity="0.4"/>
<stop offset="1" stop-color="white" stop-opacity="0"/>
</radialGradient>
<linearGradient id="paint1_linear_1_131" x1="33.21" y1="15.73" x2="33.21" y2="76.21" gradientUnits="userSpaceOnUse">
<stop stop-color="#5AFFE2"/>
<stop offset="0.26" stop-color="#55EEE2"/>
<stop offset="0.75" stop-color="#4AC5E5"/>
<stop offset="1" stop-color="#44AEE7"/>
</linearGradient>
<linearGradient id="paint2_linear_1_131" x1="58.19" y1="0.100003" x2="58.19" y2="92.77" gradientUnits="userSpaceOnUse">
<stop stop-color="#46B0ED"/>
<stop offset="0.14" stop-color="#539FED"/>
<stop offset="0.42" stop-color="#7675EF"/>
<stop offset="0.81" stop-color="#AE32F3"/>
<stop offset="1" stop-color="#CC0FF5"/>
</linearGradient>
<linearGradient id="paint3_linear_1_131" x1="45.7" y1="15.73" x2="45.7" y2="76.21" gradientUnits="userSpaceOnUse">
<stop stop-color="#5AFFE2"/>
<stop offset="0.26" stop-color="#55EEE2"/>
<stop offset="0.75" stop-color="#4AC5E5"/>
<stop offset="1" stop-color="#44AEE7"/>
</linearGradient>
<linearGradient id="paint4_linear_1_131" x1="45.7" y1="0.0999861" x2="45.7" y2="92.77" gradientUnits="userSpaceOnUse">
<stop stop-color="#42B8E5"/>
<stop offset="0.14" stop-color="#43A7E7"/>
<stop offset="0.42" stop-color="#487DED"/>
<stop offset="0.79" stop-color="#503AF8"/>
<stop offset="1" stop-color="#5513FE"/>
</linearGradient>
<linearGradient id="paint5_linear_1_131" x1="83.18" y1="0.100003" x2="83.18" y2="92.77" gradientUnits="userSpaceOnUse">
<stop stop-color="#F5A500"/>
<stop offset="0.12" stop-color="#F49710"/>
<stop offset="0.36" stop-color="#F4753A"/>
<stop offset="0.68" stop-color="#F43F7D"/>
<stop offset="1" stop-color="#F406C5"/>
</linearGradient>
<linearGradient id="paint6_linear_1_131" x1="70.68" y1="0.0999861" x2="70.68" y2="92.77" gradientUnits="userSpaceOnUse">
<stop stop-color="#46B0ED"/>
<stop offset="0.14" stop-color="#539FED"/>
<stop offset="0.42" stop-color="#7675EF"/>
<stop offset="0.81" stop-color="#AE32F3"/>
<stop offset="1" stop-color="#CC0FF5"/>
</linearGradient>
<linearGradient id="paint7_linear_1_131" x1="70.68" y1="0.0999861" x2="70.68" y2="92.77" gradientUnits="userSpaceOnUse">
<stop stop-color="#989E00"/>
<stop offset="0.14" stop-color="#9B8F10"/>
<stop offset="0.41" stop-color="#A4683A"/>
<stop offset="0.79" stop-color="#B22A7D"/>
<stop offset="1" stop-color="#BB05A6"/>
</linearGradient>
</defs>
</svg>
